<svg width="140" height="96" viewBox="0 0 140 96" fill="none" xmlns="http://www.w3.org/2000/svg">
  <defs>
    <linearGradient id="plisa-gradient" x1="12" y1="6" x2="128" y2="90" gradientUnits="userSpaceOnUse">
      <stop stop-color="#3B5BFF"/>
      <stop offset="1" stop-color="#1B2653"/>
    </linearGradient>
    <linearGradient id="plisa-highlight" x1="52" y1="10" x2="112" y2="80" gradientUnits="userSpaceOnUse">
      <stop stop-color="#EDF1FF" stop-opacity="0.9"/>
      <stop offset="1" stop-color="#3B5BFF" stop-opacity="0.12"/>
    </linearGradient>
    <clipPath id="clip">
      <rect x="12" y="6" width="116" height="84" rx="22" ry="22"/>
    </clipPath>
  </defs>
  <g clip-path="url(#clip)">
    <rect x="12" y="6" width="116" height="84" rx="22" ry="22" fill="url(#plisa-gradient)"/>
    <ellipse cx="58" cy="18" rx="32" ry="16" fill="url(#plisa-highlight)" opacity="0.85"/>
    <path d="M62 20C62 15.5817 65.5817 12 70 12H88C104.569 12 118 25.4315 118 42C118 58.5685 104.569 72 88 72H70C65.5817 72 62 68.4183 62 64V20Z" fill="white" fill-opacity="0.9"/>
    <path d="M80 28C73.3726 28 68 33.3726 68 40V74C68 82.8366 75.1634 90 84 90H96C104.284 90 111 96.7157 111 105V96H92C75.4315 96 62 82.5685 62 66V40C62 28.9543 70.9543 20 82 20H96C98.7614 20 101 22.2386 101 25C101 27.7614 98.7614 30 96 30H80Z" fill="#1B2653"/>
    <circle cx="101" cy="24" r="6" fill="#EDF1FF"/>
  </g>
</svg>
